<svg id="Layer_1" data-name="Layer 1" xmlns="http://www.w3.org/2000/svg" viewBox="0 0 237.38 237.38"><defs><style>.cls-1{fill:#2db34a;stroke:#231f20;stroke-miterlimit:10;stroke-width:3px;}.cls-2{fill:#231f20;}</style></defs><circle class="cls-1" cx="118.69" cy="118.69" r="117.19"/><circle class="cls-2" cx="161.27" cy="87.9" r="5.43"/><circle class="cls-2" cx="123.61" cy="88.9" r="5.43"/><path class="cls-2" d="M284.59,294.73a35.16,35.16,0,0,1-4.6,21.42,37.37,37.37,0,0,1-16.06,14.66c-13.73,6.63-31,4.24-42.15-6.16a35,35,0,0,1-11-21.6,2.57,2.57,0,0,0-2.5-2.5,2.52,2.52,0,0,0-2.5,2.5A40.29,40.29,0,0,0,216,325.86a42.07,42.07,0,0,0,21.2,12.47,43.55,43.55,0,0,0,45.48-17,39.77,39.77,0,0,0,7-26.56,2.57,2.57,0,0,0-2.5-2.5,2.51,2.51,0,0,0-2.5,2.5Z" transform="translate(-97.84 -162.93)"/><path class="cls-2" d="M210.52,290.85a19.84,19.84,0,0,1-4.75,11.72,20.39,20.39,0,0,1-11.68,6.64,2.5,2.5,0,0,0,1.33,4.82,25.12,25.12,0,0,0,20.1-23.18,2.53,2.53,0,0,0-2.5-2.5,2.55,2.55,0,0,0-2.5,2.5Z" transform="translate(-97.84 -162.93)"/><path class="cls-2" d="M303.14,292.92a20.08,20.08,0,0,1-23.25-8.06c-1.74-2.7-6.07-.19-4.32,2.53a25.15,25.15,0,0,0,28.9,10.35c3-1,1.74-5.83-1.33-4.82Z" transform="translate(-97.84 -162.93)"/></svg>